<svg xmlns="http://www.w3.org/2000/svg" xmlns:xlink="http://www.w3.org/1999/xlink" preserveAspectRatio="xMidYMid" width="207" height="61" viewBox="0 0 207 61"><defs><style>.cls-1{fill:#ffc107}.cls-1,.cls-2,.cls-3{fill-rule:evenodd}.cls-2,.cls-3{fill:#fff}.cls-3{opacity:0.3}</style></defs><path d="M32.869,33.424 C32.954,33.263 32.996,33.089 32.996,32.902 C32.996,32.715 32.954,32.541 32.869,32.380 C32.783,32.220 32.667,32.094 32.521,32.003 L22.524,25.839 C22.226,25.651 21.928,25.657 21.630,25.855 C21.493,25.946 21.384,26.070 21.303,26.228 C21.223,26.386 21.182,26.556 21.182,26.738 L21.182,39.066 C21.182,39.248 21.223,39.418 21.303,39.576 C21.384,39.734 21.493,39.858 21.630,39.949 C21.928,40.147 22.226,40.153 22.524,39.965 L32.521,33.801 C32.667,33.710 32.783,33.584 32.869,33.424 Z" class="cls-1"/><path d="M50.500,22.100 L45.955,31.700 C45.955,40.865 40.549,48.696 32.920,51.833 C32.736,51.711 32.469,51.597 32.118,51.498 C30.677,51.089 28.785,51.775 28.686,53.038 C27.648,53.210 26.584,53.300 25.500,53.300 C24.416,53.300 23.352,53.210 22.314,53.038 C22.215,51.775 20.322,51.089 18.882,51.498 C18.531,51.597 18.264,51.711 18.079,51.833 C10.451,48.696 5.045,40.865 5.045,31.700 L0.500,22.100 L4.289,21.301 L0.500,17.300 L2.773,0.500 L7.318,12.500 L12.098,15.385 C13.039,14.522 14.054,13.747 15.134,13.076 L25.500,14.900 L35.866,13.076 C36.946,13.747 37.961,14.522 38.902,15.385 L43.682,12.500 L48.227,0.500 L50.500,17.300 L46.711,21.301 L50.500,22.100 ZM39.344,32.125 C39.344,24.600 33.244,18.500 25.719,18.500 C18.194,18.500 12.094,24.600 12.094,32.125 L12.094,33.656 C12.094,41.181 18.194,47.281 25.719,47.281 C33.244,47.281 39.344,41.181 39.344,33.656 L39.344,32.125 ZM18.882,53.019 L20.045,53.276 L20.045,53.300 C20.045,56.481 22.487,59.060 25.500,59.060 C28.512,59.060 30.954,56.481 30.954,53.300 L30.954,53.276 L32.118,53.019 L32.311,52.959 C32.316,53.071 32.318,53.186 32.318,53.300 C32.318,57.276 29.265,60.500 25.500,60.500 C21.734,60.500 18.682,57.276 18.682,53.300 C18.682,53.186 18.684,53.071 18.689,52.959 L18.882,53.019 Z" class="cls-1"/><path d="M129.000,28.180 L125.133,30.500 L126.164,26.074 L122.727,23.109 L127.238,22.766 L129.000,18.598 L130.762,22.723 L135.273,23.109 L131.836,26.074 L132.867,30.500 L129.000,28.180 ZM119.848,25.000 C119.848,27.521 120.743,29.677 122.533,31.467 C124.323,33.257 126.479,34.152 129.000,34.152 C131.520,34.152 133.676,33.257 135.467,31.467 C137.257,29.677 138.152,27.521 138.152,25.000 C138.152,22.480 137.257,20.324 135.467,18.533 C133.676,16.743 131.520,15.848 129.000,15.848 C126.479,15.848 124.323,16.743 122.533,18.533 C120.743,20.324 119.848,22.480 119.848,25.000 Z" class="cls-1"/><path d="M199.787,28.348 L199.787,34.000 L195.355,34.000 L195.355,28.470 L188.886,16.495 L193.329,16.495 L197.553,24.125 L201.679,16.495 L206.134,16.495 L199.787,28.348 ZM185.749,34.000 L184.503,30.777 L176.850,30.777 L175.580,34.000 L171.002,34.000 L178.546,16.495 L183.124,16.495 L190.497,34.000 L185.749,34.000 ZM180.695,20.926 L178.144,27.396 L183.197,27.396 L180.695,20.926 ZM158.808,16.495 L163.263,16.495 L163.263,30.277 L170.685,30.277 L170.685,34.000 L158.808,34.000 L158.808,16.495 ZM149.445,29.081 L146.271,29.081 L146.271,34.000 L141.815,34.000 L141.815,16.495 L149.445,16.495 C151.675,16.495 153.408,17.024 154.645,18.082 C155.882,19.140 156.500,20.646 156.500,22.599 C156.500,24.649 155.882,26.242 154.645,27.378 C153.408,28.513 151.675,29.081 149.445,29.081 ZM151.490,20.694 C150.956,20.230 150.202,19.999 149.225,19.999 L146.271,19.999 L146.271,25.577 L149.225,25.577 C150.210,25.577 150.967,25.335 151.496,24.851 C152.025,24.367 152.289,23.665 152.289,22.745 C152.289,21.842 152.022,21.158 151.490,20.694 Z" class="cls-2"/><path d="M112.422,28.055 L116.512,34.000 L114.241,34.000 L110.616,28.421 C110.119,28.454 109.729,28.470 109.444,28.470 L104.793,28.470 L104.793,34.000 L102.791,34.000 L102.791,16.495 L109.444,16.495 C111.625,16.495 113.320,17.008 114.528,18.033 C115.737,19.059 116.341,20.507 116.341,22.379 C116.341,23.811 116.003,25.010 115.328,25.974 C114.652,26.938 113.684,27.632 112.422,28.055 ZM113.124,19.437 C112.266,18.762 111.039,18.424 109.444,18.424 L104.793,18.424 L104.793,26.554 L109.444,26.554 C111.039,26.554 112.266,26.204 113.124,25.504 C113.983,24.804 114.412,23.779 114.412,22.428 C114.412,21.109 113.983,20.113 113.124,19.437 ZM94.588,32.914 C93.188,33.703 91.658,34.098 89.998,34.098 C88.313,34.098 86.771,33.703 85.372,32.914 C83.972,32.124 82.863,31.054 82.045,29.703 C81.227,28.352 80.818,26.867 80.818,25.248 C80.818,23.628 81.227,22.145 82.045,20.798 C82.863,19.451 83.972,18.389 85.372,17.612 C86.771,16.835 88.313,16.446 89.998,16.446 C91.658,16.446 93.188,16.839 94.588,17.624 C95.988,18.410 97.096,19.474 97.914,20.816 C98.732,22.159 99.141,23.636 99.141,25.248 C99.141,26.867 98.732,28.352 97.914,29.703 C97.096,31.054 95.988,32.124 94.588,32.914 ZM96.126,21.775 C95.483,20.729 94.620,19.897 93.538,19.278 C92.456,18.660 91.276,18.351 89.998,18.351 C88.712,18.351 87.524,18.660 86.434,19.278 C85.343,19.897 84.472,20.731 83.821,21.781 C83.170,22.831 82.845,23.986 82.845,25.248 C82.845,26.517 83.170,27.681 83.821,28.739 C84.472,29.797 85.343,30.633 86.434,31.247 C87.524,31.862 88.712,32.169 89.998,32.169 C91.284,32.169 92.466,31.862 93.544,31.247 C94.622,30.633 95.483,29.797 96.126,28.739 C96.769,27.681 97.090,26.517 97.090,25.248 C97.090,23.978 96.769,22.820 96.126,21.775 ZM74.971,34.000 L72.969,34.000 L72.969,18.424 L67.281,18.424 L67.281,16.495 L80.696,16.495 L80.696,18.424 L74.971,18.424 L74.971,34.000 Z" class="cls-2"/><path d="M202.760,47.000 L202.760,43.958 C202.760,43.493 202.630,43.128 202.369,42.864 C202.109,42.601 201.752,42.469 201.300,42.469 C200.759,42.482 200.337,42.665 200.033,43.018 C199.728,43.371 199.576,43.836 199.576,44.412 L199.576,47.000 L198.790,47.000 L198.790,43.958 C198.790,43.493 198.661,43.128 198.404,42.864 C198.147,42.601 197.789,42.469 197.330,42.469 C196.796,42.482 196.374,42.665 196.063,43.018 C195.752,43.371 195.597,43.836 195.597,44.412 L195.597,47.000 L194.830,47.000 L194.830,41.731 L195.597,41.731 L195.597,42.918 C195.769,42.518 196.026,42.217 196.366,42.015 C196.706,41.813 197.120,41.709 197.608,41.702 C198.103,41.702 198.513,41.822 198.839,42.061 C199.164,42.300 199.384,42.640 199.498,43.079 C199.658,42.620 199.916,42.278 200.272,42.051 C200.628,41.825 201.064,41.709 201.578,41.702 C202.190,41.702 202.669,41.884 203.016,42.247 C203.363,42.610 203.536,43.110 203.536,43.748 L203.536,47.000 L202.760,47.000 ZM189.521,46.690 C189.116,46.916 188.656,47.029 188.142,47.029 C187.628,47.029 187.167,46.916 186.760,46.690 C186.353,46.464 186.037,46.149 185.810,45.745 C185.584,45.342 185.471,44.879 185.471,44.358 C185.471,43.844 185.584,43.386 185.810,42.984 C186.037,42.582 186.353,42.269 186.760,42.046 C187.167,41.823 187.628,41.712 188.142,41.712 C188.656,41.712 189.116,41.823 189.521,42.046 C189.927,42.269 190.243,42.583 190.471,42.986 C190.699,43.390 190.813,43.847 190.813,44.358 C190.813,44.879 190.699,45.342 190.471,45.745 C190.243,46.149 189.927,46.464 189.521,46.690 ZM189.792,43.357 C189.633,43.064 189.407,42.835 189.116,42.669 C188.825,42.503 188.500,42.420 188.142,42.420 C187.781,42.420 187.455,42.503 187.165,42.669 C186.876,42.835 186.651,43.065 186.492,43.360 C186.332,43.655 186.252,43.991 186.252,44.368 C186.252,44.749 186.332,45.088 186.492,45.384 C186.651,45.680 186.876,45.912 187.165,46.080 C187.455,46.247 187.781,46.331 188.142,46.331 C188.503,46.331 188.829,46.247 189.119,46.080 C189.408,45.912 189.633,45.680 189.792,45.384 C189.952,45.088 190.032,44.749 190.032,44.368 C190.032,43.987 189.952,43.650 189.792,43.357 ZM179.139,46.070 C179.423,46.238 179.745,46.321 180.106,46.321 C180.451,46.321 180.762,46.263 181.039,46.146 C181.316,46.028 181.548,45.859 181.737,45.638 L182.186,46.121 C181.945,46.408 181.645,46.631 181.285,46.790 C180.926,46.950 180.523,47.029 180.077,47.029 C179.569,47.029 179.118,46.918 178.724,46.695 C178.331,46.472 178.022,46.159 177.799,45.755 C177.576,45.351 177.465,44.889 177.465,44.368 C177.465,43.847 177.578,43.386 177.804,42.984 C178.030,42.582 178.345,42.269 178.749,42.046 C179.152,41.823 179.608,41.712 180.116,41.712 C180.523,41.712 180.896,41.780 181.237,41.917 C181.577,42.054 181.866,42.244 182.103,42.488 L181.674,43.040 C181.247,42.633 180.725,42.430 180.106,42.430 C179.745,42.430 179.423,42.511 179.139,42.674 C178.856,42.837 178.635,43.065 178.475,43.360 C178.316,43.655 178.236,43.991 178.236,44.368 C178.236,44.749 178.316,45.086 178.475,45.379 C178.635,45.672 178.856,45.902 179.139,46.070 ZM173.408,47.078 C173.268,47.078 173.151,47.028 173.057,46.929 C172.962,46.830 172.915,46.707 172.915,46.561 C172.915,46.414 172.962,46.290 173.057,46.189 C173.151,46.089 173.268,46.038 173.408,46.038 C173.542,46.038 173.655,46.089 173.748,46.189 C173.841,46.290 173.887,46.414 173.887,46.561 C173.887,46.707 173.841,46.830 173.748,46.929 C173.655,47.028 173.542,47.078 173.408,47.078 ZM166.850,48.672 C166.584,48.879 166.274,48.982 165.920,48.982 C165.500,48.982 165.130,48.852 164.811,48.592 L165.138,47.942 C165.373,48.108 165.620,48.191 165.880,48.191 C166.086,48.191 166.270,48.128 166.435,48.001 C166.599,47.874 166.733,47.690 166.837,47.449 L167.062,46.961 L164.879,41.731 L165.700,41.731 L167.448,46.082 L169.118,41.731 L169.919,41.731 L167.502,47.752 C167.332,48.159 167.115,48.466 166.850,48.672 ZM160.892,46.189 C160.472,46.756 159.829,47.039 158.963,47.039 C158.608,47.039 158.295,46.969 158.023,46.829 C157.751,46.689 157.541,46.496 157.393,46.250 C157.245,46.005 157.171,45.730 157.171,45.428 C157.171,44.969 157.344,44.604 157.691,44.334 C158.038,44.064 158.522,43.926 159.144,43.919 L160.872,43.919 L160.872,43.611 C160.872,43.217 160.752,42.914 160.513,42.701 C160.274,42.488 159.923,42.381 159.461,42.381 C158.927,42.381 158.370,42.581 157.791,42.981 L157.464,42.410 C157.838,42.163 158.183,41.983 158.499,41.871 C158.815,41.758 159.186,41.702 159.612,41.702 C160.260,41.702 160.759,41.862 161.109,42.181 C161.459,42.500 161.637,42.946 161.644,43.519 L161.653,47.000 L160.892,47.000 L160.892,46.189 ZM160.882,44.549 L159.241,44.549 C158.349,44.549 157.903,44.832 157.903,45.398 C157.903,45.691 158.013,45.925 158.233,46.099 C158.453,46.273 158.746,46.360 159.114,46.360 C159.560,46.360 159.941,46.255 160.257,46.045 C160.573,45.835 160.781,45.547 160.882,45.179 L160.882,44.549 ZM152.246,39.578 L153.027,39.578 L153.027,47.000 L152.246,47.000 L152.246,39.578 ZM146.976,46.695 C146.597,46.918 146.160,47.029 145.665,47.029 C145.199,47.029 144.792,46.928 144.442,46.724 C144.092,46.521 143.817,46.237 143.619,45.872 L143.619,48.938 L142.838,48.938 L142.838,41.731 L143.619,41.731 L143.619,42.869 C143.811,42.495 144.082,42.207 144.432,42.005 C144.782,41.803 145.186,41.702 145.645,41.702 C146.140,41.702 146.579,41.815 146.961,42.042 C147.344,42.268 147.642,42.584 147.855,42.991 C148.068,43.398 148.175,43.860 148.175,44.378 C148.175,44.892 148.070,45.351 147.860,45.755 C147.650,46.159 147.355,46.472 146.976,46.695 ZM147.147,43.353 C146.986,43.056 146.762,42.824 146.475,42.654 C146.189,42.485 145.867,42.400 145.509,42.400 C145.141,42.400 144.814,42.483 144.527,42.649 C144.241,42.815 144.018,43.049 143.858,43.350 C143.699,43.651 143.619,43.987 143.619,44.358 C143.619,44.739 143.699,45.078 143.858,45.374 C144.018,45.670 144.241,45.902 144.527,46.070 C144.814,46.238 145.141,46.321 145.509,46.321 C145.867,46.321 146.189,46.238 146.475,46.070 C146.762,45.902 146.986,45.669 147.147,45.369 C147.308,45.070 147.388,44.733 147.388,44.358 C147.388,43.984 147.308,43.649 147.147,43.353 ZM137.480,46.690 C137.075,46.916 136.615,47.029 136.101,47.029 C135.586,47.029 135.126,46.916 134.719,46.690 C134.312,46.464 133.995,46.149 133.769,45.745 C133.543,45.342 133.430,44.879 133.430,44.358 C133.430,43.844 133.543,43.386 133.769,42.984 C133.995,42.582 134.312,42.269 134.719,42.046 C135.126,41.823 135.586,41.712 136.101,41.712 C136.615,41.712 137.075,41.823 137.480,42.046 C137.885,42.269 138.202,42.583 138.430,42.986 C138.658,43.390 138.772,43.847 138.772,44.358 C138.772,44.879 138.658,45.342 138.430,45.745 C138.202,46.149 137.885,46.464 137.480,46.690 ZM137.751,43.357 C137.592,43.064 137.366,42.835 137.075,42.669 C136.784,42.503 136.459,42.420 136.101,42.420 C135.739,42.420 135.414,42.503 135.124,42.669 C134.834,42.835 134.610,43.065 134.450,43.360 C134.291,43.655 134.211,43.991 134.211,44.368 C134.211,44.749 134.291,45.088 134.450,45.384 C134.610,45.680 134.834,45.912 135.124,46.080 C135.414,46.247 135.739,46.331 136.101,46.331 C136.462,46.331 136.788,46.247 137.077,46.080 C137.367,45.912 137.592,45.680 137.751,45.384 C137.911,45.088 137.990,44.749 137.990,44.368 C137.990,43.987 137.911,43.650 137.751,43.357 ZM128.944,42.945 C128.612,43.256 128.421,43.675 128.373,44.202 L128.373,47.000 L127.596,47.000 L127.596,41.731 L128.373,41.731 L128.373,42.898 C128.548,42.514 128.796,42.221 129.115,42.017 C129.434,41.814 129.816,41.709 130.262,41.702 L130.262,42.488 C129.715,42.482 129.276,42.634 128.944,42.945 ZM122.288,46.690 C121.882,46.916 121.423,47.029 120.908,47.029 C120.394,47.029 119.933,46.916 119.526,46.690 C119.119,46.464 118.803,46.149 118.577,45.745 C118.350,45.342 118.237,44.879 118.237,44.358 C118.237,43.844 118.350,43.386 118.577,42.984 C118.803,42.582 119.119,42.269 119.526,42.046 C119.933,41.823 120.394,41.712 120.908,41.712 C121.423,41.712 121.882,41.823 122.288,42.046 C122.693,42.269 123.009,42.583 123.237,42.986 C123.465,43.390 123.579,43.847 123.579,44.358 C123.579,44.879 123.465,45.342 123.237,45.745 C123.009,46.149 122.693,46.464 122.288,46.690 ZM122.559,43.357 C122.399,43.064 122.174,42.835 121.882,42.669 C121.591,42.503 121.266,42.420 120.908,42.420 C120.547,42.420 120.221,42.503 119.932,42.669 C119.642,42.835 119.417,43.065 119.258,43.360 C119.098,43.655 119.019,43.991 119.019,44.368 C119.019,44.749 119.098,45.088 119.258,45.384 C119.417,45.680 119.642,45.912 119.932,46.080 C120.221,46.247 120.547,46.331 120.908,46.331 C121.270,46.331 121.595,46.247 121.885,46.080 C122.174,45.912 122.399,45.680 122.559,45.384 C122.718,45.088 122.798,44.749 122.798,44.368 C122.798,43.987 122.718,43.650 122.559,43.357 ZM113.434,46.075 C113.551,46.213 113.727,46.282 113.961,46.282 C114.235,46.282 114.515,46.191 114.801,46.009 L115.021,46.639 C114.640,46.899 114.243,47.033 113.829,47.039 C113.423,47.039 113.097,46.915 112.853,46.666 C112.609,46.417 112.487,46.041 112.487,45.540 L112.487,42.532 L111.730,42.532 L111.730,41.902 L112.487,41.902 L112.487,40.511 L113.258,40.511 L113.258,41.902 L114.928,41.888 L114.928,42.532 L113.258,42.532 L113.258,45.398 C113.258,45.711 113.317,45.936 113.434,46.075 ZM107.713,47.078 C107.573,47.078 107.456,47.028 107.361,46.929 C107.267,46.830 107.220,46.707 107.220,46.561 C107.220,46.414 107.267,46.290 107.361,46.189 C107.456,46.089 107.573,46.038 107.713,46.038 C107.846,46.038 107.959,46.089 108.052,46.189 C108.145,46.290 108.191,46.414 108.191,46.561 C108.191,46.707 108.145,46.830 108.052,46.929 C107.959,47.028 107.846,47.078 107.713,47.078 ZM101.484,47.000 L99.936,42.718 L98.398,47.000 L97.587,47.000 L95.614,41.731 L96.435,41.731 L97.997,46.189 L99.526,41.731 L100.346,41.731 L101.894,46.189 L103.437,41.731 L104.247,41.731 L102.294,47.000 L101.484,47.000 ZM90.196,47.000 L88.648,42.718 L87.110,47.000 L86.299,47.000 L84.327,41.731 L85.147,41.731 L86.710,46.189 L88.238,41.731 L89.058,41.731 L90.606,46.189 L92.149,41.731 L92.960,41.731 L91.006,47.000 L90.196,47.000 ZM78.908,47.000 L77.360,42.718 L75.822,47.000 L75.012,47.000 L73.039,41.731 L73.859,41.731 L75.422,46.189 L76.950,41.731 L77.771,41.731 L79.318,46.189 L80.861,41.731 L81.672,41.731 L79.719,47.000 L78.908,47.000 Z" class="cls-3"/></svg>